# xmcd
#
# Track frame offsets:
#	150
#	21331
#	28514
#	42212
#	55339
#	81743
#	124125
#	147295
#	181321
#	193043
#	207103
#	219152
#	234422
#
# Disc length: 3323 seconds
#
# Revision: 1
# Processed by: cddbd v1.5.2PL0 Copyright (c) Steve Scherf et al.
# Submitted via: audiograbber 1.83.01
#
DISCID=b80cf90d
DTITLE=Divertimento - Zuvielisation
DYEAR=2006
DGENRE=Comedy
TTITLE0=Warm Up
TTITLE1=Camel Trekking
TTITLE2=Auto Freak
TTITLE3=Strassenmusiker
TTITLE4=Saalwart-Mäge
TTITLE5=Popstern Casting
TTITLE6=Freiwillige Feuerwehr
TTITLE7=Love Story
TTITLE8=Arztpraxis
TTITLE9=Beim Doktor
TTITLE10=Danke!
TTITLE11=Si, Si, Senor (Original Version)
TTITLE12=Si, Si, Senor (Instrumental)
EXTD=
EXTT0=
EXTT1=
EXTT2=
EXTT3=
EXTT4=
EXTT5=
EXTT6=
EXTT7=
EXTT8=
EXTT9=
EXTT10=
EXTT11=
EXTT12=
PLAYORDER=
